HIERARCHY
ROOT Hips
{
	OFFSET -0.001795 -0.223333 0.028219
	CHANNELS 6 Xposition Yposition Zposition Zrotation Yrotation Xrotation 
	JOINT LeftUpLeg
	{
		OFFSET 0.069520 -0.091406 -0.006815
		CHANNELS 3 Zrotation Yrotation Xrotation
		JOINT LeftLeg
		{
			OFFSET 0.034277 -0.375199 -0.004496
			CHANNELS 3 Zrotation Yrotation Xrotation
			JOINT LeftFoot
			{
				OFFSET -0.013596 -0.397961 -0.043693
				CHANNELS 3 Zrotation Yrotation Xrotation
				JOINT LeftToe
				{
					OFFSET 0.026358 -0.055791 0.119288
					CHANNELS 3 Zrotation Yrotation Xrotation
					End Site
					{
						OFFSET 0.000000 0.000000 0.000000
					}
				}
			}
		}
	}
	JOINT RightUpLeg
	{
		OFFSET -0.067670 -0.090522 -0.004320
		CHANNELS 3 Zrotation Yrotation Xrotation
		JOINT RightLeg
		{
			OFFSET -0.038290 -0.382569 -0.008850
			CHANNELS 3 Zrotation Yrotation Xrotation
			JOINT RightFoot
			{
				OFFSET 0.015774 -0.398415 -0.042312
				CHANNELS 3 Zrotation Yrotation Xrotation
				JOINT RightToe
				{
					OFFSET -0.025372 -0.048144 0.123348
					CHANNELS 3 Zrotation Yrotation Xrotation
					End Site
					{
						OFFSET 0.000000 0.000000 0.000000
					}
				}
			}
		}
	}
	JOINT Spine
	{
		OFFSET -0.002533 0.108963 -0.026696
		CHANNELS 3 Zrotation Yrotation Xrotation
		JOINT Spine1
		{
			OFFSET 0.005487 0.135180 0.001092
			CHANNELS 3 Zrotation Yrotation Xrotation
			JOINT Spine2
			{
				OFFSET 0.001457 0.052922 0.025425
				CHANNELS 3 Zrotation Yrotation Xrotation
				JOINT Neck
				{
					OFFSET -0.002778 0.213870 -0.042857
					CHANNELS 3 Zrotation Yrotation Xrotation
					JOINT Head
					{
						OFFSET 0.005152 0.064970 0.051349
						CHANNELS 3 Zrotation Yrotation Xrotation
						End Site
						{
							OFFSET 0.000000 0.000000 0.000000
						}
					}
				}
				JOINT LeftShoulder
				{
					OFFSET 0.078845 0.121749 -0.034090
					CHANNELS 3 Zrotation Yrotation Xrotation
					JOINT LeftArm
					{
						OFFSET 0.090977 0.030469 -0.008868
						CHANNELS 3 Zrotation Yrotation Xrotation
						JOINT LeftForeArm
						{
							OFFSET 0.259612 -0.012772 -0.027456
							CHANNELS 3 Zrotation Yrotation Xrotation
							JOINT LeftHand
							{
								OFFSET 0.249234 0.008986 -0.001171
								CHANNELS 3 Zrotation Yrotation Xrotation
								End Site
								{
									OFFSET 0.000000 0.000000 0.000000
								}
							}
						}
					}
				}
				JOINT RightShoulder
				{
					OFFSET -0.081759 0.118833 -0.038615
					CHANNELS 3 Zrotation Yrotation Xrotation
					JOINT RightArm
					{
						OFFSET -0.096012 0.032551 -0.009143
						CHANNELS 3 Zrotation Yrotation Xrotation
						JOINT RightForeArm
						{
							OFFSET -0.253742 -0.013329 -0.021401
							CHANNELS 3 Zrotation Yrotation Xrotation
							JOINT RightHand
							{
								OFFSET -0.255298 0.007772 -0.005559
								CHANNELS 3 Zrotation Yrotation Xrotation
								End Site
								{
									OFFSET 0.000000 0.000000 0.000000
								}
							}
						}
					}
				}
			}
		}
	}
}
MOTION
Frames: 6
Frame Time: 0.050000
0.000000 0.956737 0.000000 4.166677 27.852607 16.658976 6.775136 -1.089688 -9.947875 -6.804559 0.100672 -1.941661 5.245578 15.464282 13.647865 0.000000 0.000000 0.000000 -7.817360 -0.918401 -23.707119 1.108785 -0.301247 8.040629 2.958038 4.007864 14.087910 0.000000 0.000000 0.000000 7.032569 -4.745356 24.259039 8.895121 -1.142603 -21.809140 4.849304 -7.315889 25.241694 -1.145030 2.935785 -19.645471 0.000000 0.000000 0.000000 -6.408638 -23.214765 8.642078 -52.738478 -42.270463 10.127929 -13.029488 -48.720760 7.969866 0.000000 0.000000 0.000000 6.298960 28.480178 13.004755 47.708164 42.709808 11.536599 2.352241 30.591362 2.108842 0.000000 0.000000 0.000000 
0.001111 0.956953 -0.000857 3.845903 28.489746 17.279182 6.549473 -1.179216 -11.176908 -5.470388 0.084632 -2.513191 4.952189 15.765996 15.629136 0.000000 0.000000 0.000000 -8.540506 -1.110908 -23.667969 3.130260 -0.703977 6.409830 2.305679 2.664247 15.367365 0.000000 0.000000 0.000000 7.209030 -4.518221 22.852812 9.851966 -1.540647 -20.371225 5.672245 -5.448771 24.545723 -1.126856 3.057927 -17.052547 0.000000 0.000000 0.000000 -7.345920 -22.189963 7.971878 -51.879585 -43.096443 10.122184 -15.842221 -49.141341 9.043446 0.000000 0.000000 0.000000 7.131724 26.751801 12.808606 49.521282 41.422293 11.803221 -1.517228 34.270935 1.446241 0.000000 0.000000 0.000000 
0.001847 0.956874 -0.001852 2.995721 27.186862 15.542150 6.415875 -1.067923 -10.197943 -5.130170 0.132722 -1.535928 6.836473 17.985511 15.670964 0.000000 0.000000 0.000000 -7.711498 -0.758580 -23.048951 3.301058 -0.797218 7.908895 2.211865 2.598337 13.838862 0.000000 0.000000 0.000000 7.716886 -4.658921 23.304651 8.225988 -1.039844 -20.956362 7.362416 -5.437698 25.468133 -0.949265 2.812651 -16.169268 0.000000 0.000000 0.000000 -7.925010 -21.968511 7.991611 -49.155501 -44.160000 9.766244 -16.600760 -48.694035 9.391177 0.000000 0.000000 0.000000 5.377042 25.126845 11.289754 50.746748 41.720777 12.386357 -1.842291 34.076969 1.332706 0.000000 0.000000 0.000000 
0.002330 0.957666 -0.002694 2.718744 28.179929 15.248370 6.569168 -1.056343 -9.795253 -4.492968 0.114022 -1.486152 5.618957 16.102028 14.090987 0.000000 0.000000 0.000000 -7.674154 -0.750154 -22.280754 3.181302 -0.750022 7.102998 2.578423 3.271925 14.413672 0.000000 0.000000 0.000000 7.441214 -4.595927 23.169197 9.717268 -1.440476 -21.069873 7.617578 -5.381269 25.185807 -1.659188 3.392058 -16.591946 0.000000 0.000000 0.000000 -7.893768 -21.184265 7.561017 -48.158046 -42.986983 8.902885 -19.620392 -50.125066 10.985213 0.000000 0.000000 0.000000 4.113835 25.582011 11.091313 51.961873 41.884104 13.208739 -4.214685 33.352454 0.585873 0.000000 0.000000 0.000000 
0.002531 0.957620 -0.003799 2.987122 29.655428 14.715690 6.415840 -1.033724 -9.414438 -5.061143 0.099778 -1.205806 5.873508 16.168783 13.096246 0.000000 0.000000 0.000000 -7.887071 -0.813353 -21.098959 3.133196 -0.769296 7.014811 1.984933 2.552552 13.635505 0.000000 0.000000 0.000000 7.627437 -4.745968 23.278060 10.005468 -1.472109 -21.362304 7.497439 -5.435337 24.680014 -1.517219 3.338603 -15.849991 0.000000 0.000000 0.000000 -7.399200 -21.914268 7.721052 -45.877564 -42.898999 8.193553 -21.653046 -51.306794 12.055869 0.000000 0.000000 0.000000 3.581443 25.369563 10.879556 51.070801 41.200067 12.708058 -5.036619 32.950642 0.304787 0.000000 0.000000 0.000000 
0.002353 0.958098 -0.005104 3.055920 31.078589 14.600887 6.802515 -1.074052 -9.485742 -5.049841 0.078391 -1.119859 4.515943 14.288248 12.536223 0.000000 0.000000 0.000000 -7.943173 -0.908887 -20.828751 2.998946 -0.767515 6.995102 1.720324 2.155183 14.237668 0.000000 0.000000 0.000000 7.482047 -4.745274 23.143253 10.252429 -1.488091 -21.730146 8.179199 -5.410571 24.456825 -1.269373 3.237910 -15.140119 0.000000 0.000000 0.000000 -7.176748 -22.454012 7.817927 -43.882796 -43.718152 7.835587 -20.971761 -52.078892 11.747535 0.000000 0.000000 0.000000 3.154312 24.983724 10.624487 50.070500 40.502007 12.123446 -5.562464 33.238718 0.176081 0.000000 0.000000 0.000000 
